# Blender v2.83.5 OBJ File: 'outer-box-a.blend'
# www.blender.org
mtllib outer-box-a.mtl
o outer-box-fusion-2
v -1.848791 -0.387405 0.389683
v -1.848791 -0.445928 0.389683
v -1.900000 -0.387405 0.389683
v -1.900000 -0.445928 0.389683
v -1.900000 -0.069424 0.100775
v -1.848791 -0.069424 0.100775
v -1.900000 -0.080259 0.175550
v -1.848791 -0.080259 0.175550
v -1.900000 -0.112025 0.245228
v -1.848791 -0.112025 0.245228
v -1.900000 -0.162558 0.305064
v -1.848791 -0.162558 0.305064
v -1.900000 -0.228415 0.350977
v -1.848791 -0.228415 0.350977
v -1.900000 -0.305105 0.379839
v -1.848791 -0.305105 0.379839
v -1.848791 -0.069424 -0.246806
v -1.900000 -0.069424 -0.246806
v -1.900000 -0.387405 -0.535714
v -1.848791 -0.387405 -0.535714
v -1.900000 -0.305105 -0.525870
v -1.848791 -0.305105 -0.525870
v -1.900000 -0.228415 -0.497008
v -1.848791 -0.228415 -0.497008
v -1.900000 -0.162558 -0.451095
v -1.848791 -0.162558 -0.451095
v -1.900000 -0.112025 -0.391259
v -1.848791 -0.112025 -0.391259
v -1.900000 -0.080259 -0.321581
v -1.848791 -0.080259 -0.321581
v -1.848791 -0.445928 -0.535714
v -1.900000 -0.445928 -0.535714
v -1.900000 -0.763909 -0.246806
v -1.848790 -0.763909 -0.246806
v -1.900000 -0.753074 -0.321581
v -1.848790 -0.753074 -0.321581
v -1.900000 -0.721308 -0.391259
v -1.848790 -0.721308 -0.391259
v -1.900000 -0.670775 -0.451095
v -1.848790 -0.670775 -0.451095
v -1.900000 -0.604919 -0.497008
v -1.848790 -0.604919 -0.497008
v -1.900000 -0.528228 -0.525870
v -1.848791 -0.528228 -0.525870
v -1.848790 -0.763909 0.100775
v -1.900000 -0.763909 0.100775
v -1.900000 -0.528228 0.379839
v -1.848791 -0.528228 0.379839
v -1.900000 -0.604919 0.350977
v -1.848790 -0.604919 0.350977
v -1.900000 -0.670775 0.305064
v -1.848790 -0.670775 0.305064
v -1.900000 -0.721308 0.245228
v -1.848790 -0.721308 0.245228
v -1.900000 -0.753074 0.175550
v -1.848790 -0.753074 0.175550
v -1.848790 -0.774538 -3.816667
v -1.848790 -0.774537 0.546579
v 0.600000 -0.774537 -3.816667
v 0.600000 -0.774536 0.546579
v -1.848791 -0.058797 0.546579
v -1.848791 -0.058798 -3.816667
v 0.600000 -0.058796 0.546579
v 0.600000 -0.058797 -3.816667
v 0.600000 -0.000001 -3.816667
v -1.900000 -0.000001 -3.816667
v -1.900000 -0.833334 -3.816667
v 0.600000 -0.833333 -3.816667
v -1.900000 -0.000001 0.600000
v -1.900000 -0.833333 0.600000
v 0.600000 0.000000 0.600000
v 0.600000 -0.833333 0.600000
vt 0.269724 0.374928
vt 0.266537 0.374928
vt 0.269724 0.371726
vt 0.266537 0.371726
vt 0.269724 0.344529
vt 0.272926 0.344529
vt 0.269724 0.349061
vt 0.272926 0.349061
vt 0.269724 0.353595
vt 0.272926 0.353595
vt 0.269724 0.358127
vt 0.272926 0.358127
vt 0.269724 0.362660
vt 0.272926 0.362660
vt 0.269724 0.367193
vt 0.272926 0.367193
vt 0.272926 0.371726
vt 0.269724 0.374928
vt 0.248893 0.374928
vt 0.269724 0.371726
vt 0.248893 0.371726
vt 0.233511 0.344869
vt 0.236713 0.344869
vt 0.233511 0.349402
vt 0.236713 0.349402
vt 0.233511 0.353935
vt 0.236713 0.353935
vt 0.233511 0.358468
vt 0.236713 0.358468
vt 0.233511 0.363001
vt 0.236713 0.363001
vt 0.233511 0.367534
vt 0.236713 0.367534
vt 0.233511 0.372067
vt 0.236713 0.372067
vt 0.233511 0.375268
vt 0.230324 0.375268
vt 0.233511 0.372067
vt 0.230324 0.372067
vt 0.198496 0.348573
vt 0.201697 0.348573
vt 0.198496 0.353106
vt 0.201697 0.353106
vt 0.198496 0.357639
vt 0.201697 0.357639
vt 0.198496 0.362172
vt 0.201697 0.362172
vt 0.198496 0.366705
vt 0.201697 0.366705
vt 0.198496 0.371238
vt 0.201697 0.371238
vt 0.198496 0.375771
vt 0.201697 0.375771
vt 0.233511 0.375268
vt 0.212680 0.375268
vt 0.233511 0.372067
vt 0.212680 0.372067
vt 0.187081 0.349317
vt 0.190283 0.349317
vt 0.187081 0.353850
vt 0.190283 0.353850
vt 0.187081 0.358383
vt 0.190283 0.358383
vt 0.187081 0.362916
vt 0.190283 0.362916
vt 0.187081 0.367449
vt 0.190283 0.367449
vt 0.187081 0.371982
vt 0.190283 0.371982
vt 0.187081 0.376515
vt 0.190283 0.376515
vt 0.286186 0.681844
vt 0.286186 0.420350
vt 0.439281 0.681844
vt 0.439282 0.420350
vt 0.020102 0.684870
vt 0.020102 0.423376
vt 0.173197 0.684870
vt 0.173197 0.423376
vt 0.538332 0.381776
vt 0.538332 0.342803
vt 0.691427 0.381776
vt 0.691427 0.342803
vt 0.223541 0.487807
vt 0.228022 0.488397
vt 0.210129 0.685029
vt 0.231209 0.488397
vt 0.249102 0.685029
vt 0.235690 0.487807
vt 0.239866 0.486078
vt 0.243452 0.483326
vt 0.246204 0.479740
vt 0.247933 0.475564
vt 0.248523 0.471083
vt 0.249102 0.423534
vt 0.248523 0.450252
vt 0.247933 0.445771
vt 0.246204 0.441595
vt 0.243452 0.438009
vt 0.239866 0.435257
vt 0.235690 0.433527
vt 0.231209 0.432937
vt 0.210129 0.423534
vt 0.228022 0.432937
vt 0.223541 0.433527
vt 0.219365 0.435257
vt 0.215779 0.438009
vt 0.213027 0.441595
vt 0.211297 0.445771
vt 0.210707 0.450252
vt 0.210707 0.471083
vt 0.211297 0.475564
vt 0.213027 0.479740
vt 0.215779 0.483326
vt 0.219365 0.486078
vt 0.470661 0.416429
vt 0.470661 0.569524
vt 0.467459 0.416429
vt 0.467459 0.572726
vt 0.467503 0.681235
vt 0.470704 0.678034
vt 0.512879 0.681235
vt 0.509678 0.678034
vt 0.512836 0.572726
vt 0.509634 0.569524
vt 0.512836 0.416429
vt 0.509634 0.416429
vt 0.747936 0.478173
vt 0.752417 0.478763
vt 0.731323 0.675395
vt 0.755604 0.478763
vt 0.776699 0.675395
vt 0.760086 0.478173
vt 0.764261 0.476444
vt 0.767848 0.473692
vt 0.770599 0.470106
vt 0.772329 0.465930
vt 0.772919 0.461449
vt 0.776699 0.410699
vt 0.772919 0.440618
vt 0.772329 0.436137
vt 0.770599 0.431961
vt 0.767848 0.428375
vt 0.764261 0.425623
vt 0.760086 0.423893
vt 0.755604 0.423303
vt 0.731323 0.410699
vt 0.752417 0.423303
vt 0.747936 0.423893
vt 0.743760 0.425623
vt 0.740174 0.428375
vt 0.737423 0.431961
vt 0.735693 0.436137
vt 0.735103 0.440618
vt 0.735103 0.461449
vt 0.735693 0.465930
vt 0.737423 0.470106
vt 0.740174 0.473692
vt 0.743760 0.476444
vt 0.470661 0.681125
vt 0.467459 0.681125
vt 0.470661 0.419631
vt 0.467459 0.416429
vt 0.512836 0.416429
vt 0.509634 0.419631
vt 0.512836 0.681125
vt 0.509634 0.681125
vt 0.816797 0.329860
vt 0.973094 0.329860
vt 0.816797 0.375237
vt 0.973094 0.375237
vt 0.536166 0.413869
vt 0.692462 0.413869
vt 0.536166 0.678566
vt 0.692462 0.678566
vt 0.970874 0.411779
vt 0.970874 0.676475
vt 0.814578 0.411779
vt 0.814578 0.676475
vn -0.0000 0.0061 -1.0000
vn 0.0000 -0.0061 -1.0000
vn -0.0000 -1.0000 -0.0067
vn 0.0000 -0.9594 -0.2819
vn 0.0000 -0.8448 -0.5350
vn 0.0000 -0.6737 -0.7390
vn 0.0000 -0.4657 -0.8850
vn 0.0000 -0.2372 -0.9715
vn 0.0000 -1.0000 0.0067
vn 0.0000 0.0061 1.0000
vn 0.0000 -0.2372 0.9715
vn 0.0000 -0.4657 0.8850
vn 0.0000 -0.6737 0.7390
vn 0.0000 -0.8448 0.5350
vn 0.0000 -0.9594 0.2819
vn -0.0000 -0.0061 1.0000
vn 0.0000 1.0000 0.0067
vn 0.0000 0.9594 0.2819
vn 0.0000 0.8448 0.5350
vn 0.0000 0.6737 0.7390
vn 0.0000 0.4657 0.8850
vn 0.0000 0.2372 0.9715
vn 0.0000 1.0000 -0.0067
vn 0.0000 0.2372 -0.9715
vn 0.0000 0.4657 -0.8850
vn 0.0000 0.6737 -0.7390
vn 0.0000 0.8448 -0.5350
vn 0.0000 0.9594 -0.2819
vn -0.0000 1.0000 -0.0000
vn 0.0000 -1.0000 0.0000
vn 0.0000 -0.0000 -1.0000
vn 1.0000 -0.0000 -0.0000
vn -1.0000 0.0000 0.0000
vn 0.0000 0.0000 1.0000
usemtl canninvent
s 1
f 1/1/1 2/2/2 3/3/1
f 3/3/1 2/2/2 4/4/2
f 5/5/3 6/6/3 7/7/4
f 7/7/4 6/6/3 8/8/4
f 7/7/4 8/8/4 9/9/5
f 9/9/5 8/8/4 10/10/5
f 9/9/5 10/10/5 11/11/6
f 11/11/6 10/10/5 12/12/6
f 11/11/6 12/12/6 13/13/7
f 13/13/7 12/12/6 14/14/7
f 13/13/7 14/14/7 15/15/8
f 15/15/8 14/14/7 16/16/8
f 15/15/8 16/16/8 3/3/1
f 3/3/1 16/16/8 1/17/1
f 17/18/9 6/19/3 18/20/9
f 18/20/9 6/19/3 5/21/3
f 19/22/10 20/23/10 21/24/11
f 21/24/11 20/23/10 22/25/11
f 21/24/11 22/25/11 23/26/12
f 23/26/12 22/25/11 24/27/12
f 23/26/12 24/27/12 25/28/13
f 25/28/13 24/27/12 26/29/13
f 25/28/13 26/29/13 27/30/14
f 27/30/14 26/29/13 28/31/14
f 27/30/14 28/31/14 29/32/15
f 29/32/15 28/31/14 30/33/15
f 29/32/15 30/33/15 18/34/9
f 18/34/9 30/33/15 17/35/9
f 31/36/16 20/37/10 32/38/16
f 32/38/16 20/37/10 19/39/10
f 33/40/17 34/41/17 35/42/18
f 35/42/18 34/41/17 36/43/18
f 35/42/18 36/43/18 37/44/19
f 37/44/19 36/43/18 38/45/19
f 37/44/19 38/45/19 39/46/20
f 39/46/20 38/45/19 40/47/20
f 39/46/20 40/47/20 41/48/21
f 41/48/21 40/47/20 42/49/21
f 41/48/21 42/49/21 43/50/22
f 43/50/22 42/49/21 44/51/22
f 43/50/22 44/51/22 32/52/16
f 32/52/16 44/51/22 31/53/16
f 45/54/23 34/55/17 46/56/23
f 46/56/23 34/55/17 33/57/17
f 4/58/2 2/59/2 47/60/24
f 47/60/24 2/59/2 48/61/24
f 47/60/24 48/61/24 49/62/25
f 49/62/25 48/61/24 50/63/25
f 49/62/25 50/63/25 51/64/26
f 51/64/26 50/63/25 52/65/26
f 51/64/26 52/65/26 53/66/27
f 53/66/27 52/65/26 54/67/27
f 53/66/27 54/67/27 55/68/28
f 55/68/28 54/67/27 56/69/28
f 55/68/28 56/69/28 46/70/23
f 46/70/23 56/69/28 45/71/23
f 57/72/29 58/73/29 59/74/29
f 59/74/29 58/73/29 60/75/29
f 61/76/30 62/77/30 63/78/30
f 63/78/30 62/77/30 64/79/30
f 58/80/31 61/81/31 60/82/31
f 60/82/31 61/81/31 63/83/31
f 22/84/32 20/85/32 62/86/32
f 62/86/32 20/85/32 31/87/32
f 62/86/32 31/87/32 57/88/32
f 57/88/32 31/87/32 44/89/32
f 57/88/32 44/89/32 42/90/32
f 42/90/32 40/91/32 57/88/32
f 57/88/32 40/91/32 38/92/32
f 57/88/32 38/92/32 36/93/32
f 36/93/32 34/94/32 57/88/32
f 57/88/32 34/94/32 58/95/32
f 58/95/32 34/94/32 45/96/32
f 58/95/32 45/96/32 56/97/32
f 56/97/32 54/98/32 58/95/32
f 58/95/32 54/98/32 52/99/32
f 58/95/32 52/99/32 50/100/32
f 50/100/32 48/101/32 58/95/32
f 58/95/32 48/101/32 2/102/32
f 58/95/32 2/102/32 61/103/32
f 61/103/32 2/102/32 1/104/32
f 61/103/32 1/104/32 16/105/32
f 16/105/32 14/106/32 61/103/32
f 61/103/32 14/106/32 12/107/32
f 61/103/32 12/107/32 10/108/32
f 10/108/32 8/109/32 61/103/32
f 61/103/32 8/109/32 6/110/32
f 61/103/32 6/110/32 17/111/32
f 61/103/32 17/111/32 62/86/32
f 62/86/32 17/111/32 30/112/32
f 62/86/32 30/112/32 28/113/32
f 28/113/32 26/114/32 62/86/32
f 62/86/32 26/114/32 24/115/32
f 62/86/32 24/115/32 22/84/32
f 64/116/31 62/117/31 65/118/31
f 65/118/31 62/117/31 66/119/31
f 66/120/31 62/121/31 67/122/31
f 67/122/31 62/121/31 57/123/31
f 67/124/31 57/125/31 68/126/31
f 68/126/31 57/125/31 59/127/31
f 43/128/33 32/129/33 67/130/33
f 67/130/33 32/129/33 19/131/33
f 67/130/33 19/131/33 66/132/33
f 66/132/33 19/131/33 21/133/33
f 66/132/33 21/133/33 23/134/33
f 23/134/33 25/135/33 66/132/33
f 66/132/33 25/135/33 27/136/33
f 66/132/33 27/136/33 29/137/33
f 29/137/33 18/138/33 66/132/33
f 66/132/33 18/138/33 69/139/33
f 69/139/33 18/138/33 5/140/33
f 69/139/33 5/140/33 7/141/33
f 7/141/33 9/142/33 69/139/33
f 69/139/33 9/142/33 11/143/33
f 69/139/33 11/143/33 13/144/33
f 13/144/33 15/145/33 69/139/33
f 69/139/33 15/145/33 3/146/33
f 69/139/33 3/146/33 70/147/33
f 70/147/33 3/146/33 4/148/33
f 70/147/33 4/148/33 47/149/33
f 47/149/33 49/150/33 70/147/33
f 70/147/33 49/150/33 51/151/33
f 70/147/33 51/151/33 53/152/33
f 53/152/33 55/153/33 70/147/33
f 70/147/33 55/153/33 46/154/33
f 70/147/33 46/154/33 33/155/33
f 70/147/33 33/155/33 67/130/33
f 67/130/33 33/155/33 35/156/33
f 67/130/33 35/156/33 37/157/33
f 37/157/33 39/158/33 67/130/33
f 67/130/33 39/158/33 41/159/33
f 67/130/33 41/159/33 43/128/33
f 64/160/32 65/161/32 63/162/32
f 63/162/32 65/161/32 71/163/32
f 63/162/32 71/163/32 72/164/32
f 63/162/32 72/164/32 60/165/32
f 60/165/32 72/164/32 68/166/32
f 60/165/32 68/166/32 59/167/32
f 70/168/34 72/169/34 69/170/34
f 69/170/34 72/169/34 71/171/34
f 72/172/30 70/173/30 68/174/30
f 68/174/30 70/173/30 67/175/30
f 71/176/29 65/177/29 69/178/29
f 69/178/29 65/177/29 66/179/29
