# Blender v2.83.5 OBJ File: 'outer-box.blend'
# www.blender.org
mtllib outer-box.mtl
o outer-box-fusion-2
v 0.548790 -0.445929 0.389683
v 0.548790 -0.387405 0.389683
v 0.600000 -0.445929 0.389683
v 0.600000 -0.387405 0.389683
v 0.600000 -0.763909 0.100774
v 0.548790 -0.763909 0.100774
v 0.600000 -0.753075 0.175549
v 0.548790 -0.753075 0.175549
v 0.600000 -0.721308 0.245228
v 0.548790 -0.721308 0.245228
v 0.600000 -0.670775 0.305064
v 0.548790 -0.670775 0.305064
v 0.600000 -0.604919 0.350976
v 0.548790 -0.604919 0.350976
v 0.600000 -0.528228 0.379839
v 0.548790 -0.528228 0.379839
v 0.548790 -0.763909 -0.246806
v 0.600000 -0.763909 -0.246806
v 0.600000 -0.445928 -0.535714
v 0.548790 -0.445928 -0.535714
v 0.600000 -0.528228 -0.525870
v 0.548790 -0.528228 -0.525870
v 0.600000 -0.604918 -0.497008
v 0.548790 -0.604918 -0.497008
v 0.600000 -0.670775 -0.451095
v 0.548790 -0.670775 -0.451095
v 0.600000 -0.721308 -0.391260
v 0.548790 -0.721308 -0.391260
v 0.600000 -0.753074 -0.321581
v 0.548790 -0.753074 -0.321581
v 0.548790 -0.387405 -0.535714
v 0.600000 -0.387405 -0.535714
v 0.600000 -0.069424 -0.246806
v 0.548790 -0.069424 -0.246806
v 0.600000 -0.080259 -0.321581
v 0.548790 -0.080259 -0.321581
v 0.600000 -0.112026 -0.391259
v 0.548790 -0.112026 -0.391259
v 0.600000 -0.162559 -0.451095
v 0.548790 -0.162559 -0.451095
v 0.600000 -0.228414 -0.497008
v 0.548790 -0.228414 -0.497008
v 0.600000 -0.305105 -0.525870
v 0.548790 -0.305105 -0.525870
v 0.548790 -0.069424 0.100775
v 0.600000 -0.069424 0.100775
v 0.600000 -0.305106 0.379839
v 0.548790 -0.305106 0.379839
v 0.600000 -0.228414 0.350976
v 0.548790 -0.228414 0.350976
v 0.600000 -0.162559 0.305064
v 0.548790 -0.162559 0.305064
v 0.600000 -0.112026 0.245228
v 0.548790 -0.112026 0.245228
v 0.600000 -0.080259 0.175550
v 0.548790 -0.080259 0.175550
v 0.548790 -0.058796 -3.816667
v 0.548790 -0.058796 0.546579
v -1.900000 -0.058796 -3.816667
v -1.900000 -0.058796 0.546579
v 0.548790 -0.774536 0.546579
v 0.548790 -0.774536 -3.816667
v -1.900000 -0.774536 0.546579
v -1.900000 -0.774536 -3.816667
v -1.900000 -0.833332 -3.816667
v 0.600000 -0.833332 -3.816667
v 0.600000 0.000001 -3.816667
v -1.900000 0.000001 -3.816667
v 0.600000 -0.833333 0.600000
v 0.600000 -0.000000 0.600000
v -1.900000 -0.833333 0.600000
v -1.900000 -0.000000 0.600000
vt -0.000000 0.127000
vt -0.126410 0.127000
vt -0.000000 0.000000
vt -0.126410 0.000000
vt 0.000000 -1.078884
vt 0.127000 -1.078884
vt 0.000000 -0.899070
vt 0.127000 -0.899070
vt 0.000000 -0.719256
vt 0.127000 -0.719256
vt 0.000000 -0.539442
vt 0.127000 -0.539442
vt 0.000000 -0.359628
vt 0.127000 -0.359628
vt 0.000000 -0.179814
vt 0.127000 -0.179814
vt 0.127000 0.000000
vt -0.000000 0.127000
vt -0.826322 0.127000
vt -0.000000 0.000000
vt -0.826322 0.000000
vt 0.000000 -1.078884
vt 0.127000 -1.078884
vt -0.000000 -0.899070
vt 0.127000 -0.899070
vt -0.000000 -0.719256
vt 0.127000 -0.719256
vt 0.000000 -0.539442
vt 0.127000 -0.539442
vt -0.000000 -0.359628
vt 0.127000 -0.359628
vt -0.000000 -0.179814
vt 0.127000 -0.179814
vt 0.127000 0.000000
vt -0.000000 0.127000
vt -0.126410 0.127000
vt -0.000000 0.000000
vt -0.126410 0.000000
vt 0.000000 -1.078884
vt 0.127000 -1.078884
vt 0.000000 -0.899070
vt 0.127000 -0.899070
vt 0.000000 -0.719256
vt 0.127000 -0.719256
vt 0.000000 -0.539442
vt 0.127000 -0.539442
vt 0.000000 -0.359628
vt 0.127000 -0.359628
vt 0.000000 -0.179814
vt 0.127000 -0.179814
vt 0.127000 0.000000
vt -0.000000 0.127000
vt -0.826322 0.127000
vt -0.000000 0.000000
vt -0.826322 0.000000
vt 0.000000 -1.078884
vt 0.127000 -1.078884
vt 0.000000 -0.899070
vt 0.127000 -0.899070
vt 0.000000 -0.719256
vt 0.127000 -0.719256
vt 0.000000 -0.539442
vt 0.127000 -0.539442
vt 0.000000 -0.359628
vt 0.127000 -0.359628
vt 0.000000 -0.179814
vt 0.127000 -0.179814
vt 0.127000 0.000000
vt 0.000000 6.073000
vt -10.373000 6.073000
vt 0.000000 0.000000
vt -10.373000 0.000000
vt 0.000000 6.073000
vt -10.373000 6.073000
vt 0.000000 0.000000
vt -10.373000 0.000000
vt 0.000000 6.073000
vt -1.546000 6.073000
vt 0.000000 0.000000
vt -1.546000 0.000000
vt 2.636903 -0.240972
vt 2.613500 -0.063205
vt -5.186500 -0.773000
vt 2.613500 0.063205
vt -5.186500 0.773000
vt 2.636903 0.240972
vt 2.705519 0.406625
vt 2.814671 0.548874
vt 2.956920 0.658025
vt 3.122572 0.726641
vt 3.300339 0.750044
vt 5.186500 0.773000
vt 4.126661 0.750044
vt 4.304428 0.726641
vt 4.470080 0.658025
vt 4.612329 0.548874
vt 4.721481 0.406625
vt 4.790097 0.240972
vt 4.813500 0.063205
vt 5.186500 -0.773000
vt 4.813500 -0.063205
vt 4.790097 -0.240972
vt 4.721481 -0.406625
vt 4.612329 -0.548874
vt 4.470080 -0.658025
vt 4.304428 -0.726641
vt 4.126661 -0.750044
vt 3.300339 -0.750044
vt 3.122572 -0.726641
vt 2.956920 -0.658025
vt 2.814671 -0.548874
vt 2.705519 -0.406625
vt -0.000000 1.673000
vt 6.073000 1.673000
vt 0.000000 1.800000
vt 6.200000 1.800000
vt 6.200000 0.000000
vt 6.073000 0.127000
vt 0.000000 0.000000
vt -0.000000 0.127000
vt 7.823403 0.659028
vt 7.800000 0.836795
vt 0.000000 0.000000
vt 7.800000 0.963205
vt 0.000000 1.800000
vt 7.823403 1.140972
vt 7.892019 1.306625
vt 8.001171 1.448874
vt 8.143420 1.558025
vt 8.309072 1.626641
vt 8.486839 1.650044
vt 10.500000 1.800000
vt 9.313161 1.650044
vt 9.490928 1.626641
vt 9.656580 1.558025
vt 9.798829 1.448874
vt 9.907981 1.306625
vt 9.976597 1.140972
vt 10.000000 0.963205
vt 10.500000 0.000000
vt 10.000000 0.836795
vt 9.976597 0.659028
vt 9.907981 0.493375
vt 9.798829 0.351126
vt 9.656580 0.241975
vt 9.490928 0.173359
vt 9.313161 0.149956
vt 8.486839 0.149956
vt 8.309072 0.173359
vt 8.143420 0.241975
vt 8.001171 0.351126
vt 7.892019 0.493375
vt 10.500000 1.673000
vt 10.500000 1.800000
vt 0.127000 1.673000
vt 0.000000 1.800000
vt 0.000000 0.000000
vt 0.127000 0.127000
vt 10.500000 0.000000
vt 10.500000 0.127000
vt 0.000000 0.000000
vt 6.200000 0.000000
vt 0.000000 1.800000
vt 6.200000 1.800000
vt -3.100000 -5.250000
vt 3.100000 -5.250000
vt -3.100000 5.250000
vt 3.100000 5.250000
vt -5.250000 -3.100000
vt 5.250000 -3.100000
vt -5.250000 3.100000
vt 5.250000 3.100000
vn 0.0000 -0.0061 -1.0000
vn 0.0000 0.0061 -1.0000
vn 0.0000 1.0000 -0.0067
vn 0.0000 0.9594 -0.2819
vn 0.0000 0.8448 -0.5350
vn 0.0000 0.6737 -0.7390
vn 0.0000 0.4657 -0.8850
vn 0.0000 0.2372 -0.9715
vn -0.0000 1.0000 0.0067
vn -0.0000 -0.0061 1.0000
vn 0.0000 0.2372 0.9715
vn 0.0000 0.4657 0.8850
vn 0.0000 0.6737 0.7390
vn 0.0000 0.8448 0.5350
vn 0.0000 0.9594 0.2819
vn -0.0000 0.0061 1.0000
vn -0.0000 -1.0000 0.0067
vn 0.0000 -0.9594 0.2819
vn 0.0000 -0.8448 0.5350
vn 0.0000 -0.6737 0.7390
vn 0.0000 -0.4657 0.8850
vn 0.0000 -0.2372 0.9715
vn -0.0000 -1.0000 -0.0067
vn 0.0000 -0.2372 -0.9715
vn 0.0000 -0.4657 -0.8850
vn 0.0000 -0.6737 -0.7390
vn 0.0000 -0.8448 -0.5350
vn 0.0000 -0.9594 -0.2819
vn 0.0000 -1.0000 -0.0000
vn 0.0000 1.0000 0.0000
vn 0.0000 0.0000 -1.0000
vn -1.0000 0.0000 0.0000
vn 1.0000 0.0000 0.0000
vn 0.0000 -0.0000 1.0000
usemtl Steel_-_Satin.001
s 1
f 1/1/1 2/2/2 3/3/1
f 3/3/1 2/2/2 4/4/2
f 5/5/3 6/6/3 7/7/4
f 7/7/4 6/6/3 8/8/4
f 7/7/4 8/8/4 9/9/5
f 9/9/5 8/8/4 10/10/5
f 9/9/5 10/10/5 11/11/6
f 11/11/6 10/10/5 12/12/6
f 11/11/6 12/12/6 13/13/7
f 13/13/7 12/12/6 14/14/7
f 13/13/7 14/14/7 15/15/8
f 15/15/8 14/14/7 16/16/8
f 15/15/8 16/16/8 3/3/1
f 3/3/1 16/16/8 1/17/1
f 17/18/9 6/19/3 18/20/9
f 18/20/9 6/19/3 5/21/3
f 19/22/10 20/23/10 21/24/11
f 21/24/11 20/23/10 22/25/11
f 21/24/11 22/25/11 23/26/12
f 23/26/12 22/25/11 24/27/12
f 23/26/12 24/27/12 25/28/13
f 25/28/13 24/27/12 26/29/13
f 25/28/13 26/29/13 27/30/14
f 27/30/14 26/29/13 28/31/14
f 27/30/14 28/31/14 29/32/15
f 29/32/15 28/31/14 30/33/15
f 29/32/15 30/33/15 18/20/9
f 18/20/9 30/33/15 17/34/9
f 31/35/16 20/36/10 32/37/16
f 32/37/16 20/36/10 19/38/10
f 33/39/17 34/40/17 35/41/18
f 35/41/18 34/40/17 36/42/18
f 35/41/18 36/42/18 37/43/19
f 37/43/19 36/42/18 38/44/19
f 37/43/19 38/44/19 39/45/20
f 39/45/20 38/44/19 40/46/20
f 39/45/20 40/46/20 41/47/21
f 41/47/21 40/46/20 42/48/21
f 41/47/21 42/48/21 43/49/22
f 43/49/22 42/48/21 44/50/22
f 43/49/22 44/50/22 32/37/16
f 32/37/16 44/50/22 31/51/16
f 45/52/23 34/53/17 46/54/23
f 46/54/23 34/53/17 33/55/17
f 4/56/2 2/57/2 47/58/24
f 47/58/24 2/57/2 48/59/24
f 47/58/24 48/59/24 49/60/25
f 49/60/25 48/59/24 50/61/25
f 49/60/25 50/61/25 51/62/26
f 51/62/26 50/61/25 52/63/26
f 51/62/26 52/63/26 53/64/27
f 53/64/27 52/63/26 54/65/27
f 53/64/27 54/65/27 55/66/28
f 55/66/28 54/65/27 56/67/28
f 55/66/28 56/67/28 46/54/23
f 46/54/23 56/67/28 45/68/23
f 57/69/29 58/70/29 59/71/29
f 59/71/29 58/70/29 60/72/29
f 61/73/30 62/74/30 63/75/30
f 63/75/30 62/74/30 64/76/30
f 58/77/31 61/78/31 60/79/31
f 60/79/31 61/78/31 63/80/31
f 22/81/32 20/82/32 62/83/32
f 62/83/32 20/82/32 31/84/32
f 62/83/32 31/84/32 57/85/32
f 57/85/32 31/84/32 44/86/32
f 57/85/32 44/86/32 42/87/32
f 42/87/32 40/88/32 57/85/32
f 57/85/32 40/88/32 38/89/32
f 57/85/32 38/89/32 36/90/32
f 36/90/32 34/91/32 57/85/32
f 57/85/32 34/91/32 58/92/32
f 58/92/32 34/91/32 45/93/32
f 58/92/32 45/93/32 56/94/32
f 56/94/32 54/95/32 58/92/32
f 58/92/32 54/95/32 52/96/32
f 58/92/32 52/96/32 50/97/32
f 50/97/32 48/98/32 58/92/32
f 58/92/32 48/98/32 2/99/32
f 58/92/32 2/99/32 61/100/32
f 61/100/32 2/99/32 1/101/32
f 61/100/32 1/101/32 16/102/32
f 16/102/32 14/103/32 61/100/32
f 61/100/32 14/103/32 12/104/32
f 61/100/32 12/104/32 10/105/32
f 10/105/32 8/106/32 61/100/32
f 61/100/32 8/106/32 6/107/32
f 61/100/32 6/107/32 17/108/32
f 61/100/32 17/108/32 62/83/32
f 62/83/32 17/108/32 30/109/32
f 62/83/32 30/109/32 28/110/32
f 28/110/32 26/111/32 62/83/32
f 62/83/32 26/111/32 24/112/32
f 62/83/32 24/112/32 22/81/32
f 64/113/31 62/114/31 65/115/31
f 65/115/31 62/114/31 66/116/31
f 66/116/31 62/114/31 67/117/31
f 67/117/31 62/114/31 57/118/31
f 67/117/31 57/118/31 68/119/31
f 68/119/31 57/118/31 59/120/31
f 43/121/33 32/122/33 67/123/33
f 67/123/33 32/122/33 19/124/33
f 67/123/33 19/124/33 66/125/33
f 66/125/33 19/124/33 21/126/33
f 66/125/33 21/126/33 23/127/33
f 23/127/33 25/128/33 66/125/33
f 66/125/33 25/128/33 27/129/33
f 66/125/33 27/129/33 29/130/33
f 29/130/33 18/131/33 66/125/33
f 66/125/33 18/131/33 69/132/33
f 69/132/33 18/131/33 5/133/33
f 69/132/33 5/133/33 7/134/33
f 7/134/33 9/135/33 69/132/33
f 69/132/33 9/135/33 11/136/33
f 69/132/33 11/136/33 13/137/33
f 13/137/33 15/138/33 69/132/33
f 69/132/33 15/138/33 3/139/33
f 69/132/33 3/139/33 70/140/33
f 70/140/33 3/139/33 4/141/33
f 70/140/33 4/141/33 47/142/33
f 47/142/33 49/143/33 70/140/33
f 70/140/33 49/143/33 51/144/33
f 70/140/33 51/144/33 53/145/33
f 53/145/33 55/146/33 70/140/33
f 70/140/33 55/146/33 46/147/33
f 70/140/33 46/147/33 33/148/33
f 70/140/33 33/148/33 67/123/33
f 67/123/33 33/148/33 35/149/33
f 67/123/33 35/149/33 37/150/33
f 37/150/33 39/151/33 67/123/33
f 67/123/33 39/151/33 41/152/33
f 67/123/33 41/152/33 43/121/33
f 64/153/32 65/154/32 63/155/32
f 63/155/32 65/154/32 71/156/32
f 63/155/32 71/156/32 72/157/32
f 63/155/32 72/157/32 60/158/32
f 60/158/32 72/157/32 68/159/32
f 60/158/32 68/159/32 59/160/32
f 70/161/34 72/162/34 69/163/34
f 69/163/34 72/162/34 71/164/34
f 72/165/30 70/166/30 68/167/30
f 68/167/30 70/166/30 67/168/30
f 71/169/29 65/170/29 69/171/29
f 69/171/29 65/170/29 66/172/29
